<svg width="67" height="20" viewBox="0 0 67 20" fill="none" xmlns="http://www.w3.org/2000/svg">
<path d="M2.86719 1.1875C3.39453 1.20703 3.84375 1.40234 4.21484 1.77344C4.58594 2.125 4.78125 2.56445 4.80078 3.0918V7.98438H14.3223V3.0918C14.3418 2.54492 14.5469 2.0957 14.9375 1.74414C15.3281 1.37305 15.7969 1.1875 16.3438 1.1875C16.8711 1.20703 17.3203 1.40234 17.6914 1.77344C18.0625 2.125 18.2578 2.56445 18.2773 3.0918V17.4473C18.1602 18.6191 17.5156 19.2539 16.3438 19.3516C15.7969 19.3516 15.3184 19.1758 14.9082 18.8242C14.5176 18.4531 14.3223 17.9941 14.3223 17.4473V11.9102H4.80078V17.4473C4.68359 18.6191 4.03906 19.2539 2.86719 19.3516C2.32031 19.3516 1.8418 19.1758 1.43164 18.8242C1.04102 18.4531 0.845703 17.9941 0.845703 17.4473V3.0918C0.865234 2.54492 1.07031 2.0957 1.46094 1.74414C1.85156 1.37305 2.32031 1.1875 2.86719 1.1875ZM25.8652 17.4473C25.748 18.6191 25.1035 19.2539 23.9316 19.3516C23.3848 19.3516 22.9062 19.1758 22.4961 18.8242C22.1055 18.4531 21.9102 17.9941 21.9102 17.4473V3.56055C21.9297 3.01367 22.1348 2.56445 22.5254 2.21289C22.916 1.8418 23.3848 1.65625 23.9316 1.65625H25.3672H28.9707H36.207C36.3242 1.65625 36.4414 1.66602 36.5586 1.68555H36.7344C38.1016 1.72461 39.2246 2.03711 40.1035 2.62305C40.9824 3.20898 41.6172 3.88281 42.0078 4.64453C42.3984 5.38672 42.5938 6.13867 42.5938 6.90039C42.5938 7.68164 42.3984 8.45312 42.0078 9.21484C41.6367 9.95703 41.002 10.6211 40.1035 11.207C39.2246 11.793 38.1016 12.1055 36.7344 12.1445H31.5781C31.7344 13.1211 32.0566 13.8438 32.5449 14.3125C33.0137 14.7812 33.6094 15.0156 34.332 15.0156H40.6602C41.207 15.0352 41.6562 15.2402 42.0078 15.6309C42.3789 16.0215 42.5645 16.4902 42.5645 17.0371C42.5449 17.5645 42.3496 18.0137 41.9785 18.3848C41.627 18.7363 41.1875 18.9219 40.6602 18.9414H33.8047C32.3594 18.9609 31.0508 18.3945 29.8789 17.2422C28.707 16.0898 27.9941 14.7227 27.7402 13.1406C27.3887 11.3828 27.2129 10.3965 27.2129 10.1816C27.2129 9.63477 27.3984 9.17578 27.7695 8.80469C28.1602 8.41406 28.6289 8.21875 29.1758 8.21875H36.9102C37.2812 8.19922 37.584 8.12109 37.8184 7.98438C38.0723 7.82812 38.2578 7.66211 38.375 7.48633C38.4922 7.29102 38.5508 7.0957 38.5508 6.90039C38.5508 6.70508 38.4922 6.51953 38.375 6.34375C38.2578 6.14844 38.0723 5.98242 37.8184 5.8457C37.584 5.68945 37.2812 5.60156 36.9102 5.58203H28.9707H26.627C26.1191 5.60156 25.8652 5.85547 25.8652 6.34375V17.4473ZM51.9688 0.865234C52.6523 0.865234 53.3164 0.982422 53.9609 1.2168C54.625 1.45117 55.2598 1.79297 55.8652 2.24219C55.9629 2.33984 56.0703 2.4375 56.1875 2.53516C56.2852 2.4375 56.3926 2.33984 56.5098 2.24219C57.1152 1.79297 57.7402 1.45117 58.3848 1.2168C59.0488 0.982422 59.7129 0.865234 60.377 0.865234C61.0605 0.865234 61.7246 0.982422 62.3691 1.2168C63.0332 1.45117 63.6582 1.80273 64.2441 2.27148C64.8496 2.7207 65.377 3.32617 65.8262 4.08789C66.2949 4.84961 66.5293 5.75781 66.5293 6.8125V17.3887C66.4121 18.5605 65.7676 19.1953 64.5957 19.293C64.0488 19.293 63.5703 19.1172 63.1602 18.7656C62.7695 18.3945 62.5742 17.9355 62.5742 17.3887V7.04688C62.5742 6.57812 62.4863 6.1875 62.3105 5.875C62.1348 5.54297 61.9395 5.28906 61.7246 5.11328C61.5098 4.91797 61.2852 4.78125 61.0508 4.70312C60.8164 4.60547 60.582 4.55664 60.3477 4.55664C60.1133 4.55664 59.8789 4.60547 59.6445 4.70312C59.4297 4.78125 59.2148 4.91797 59 5.11328C58.7852 5.28906 58.5898 5.54297 58.4141 5.875C58.2383 6.1875 58.1406 6.57812 58.1211 7.04688V17.3887C58.0039 18.5605 57.3594 19.1953 56.1875 19.293C55.6406 19.293 55.1621 19.1172 54.752 18.7656C54.3613 18.3945 54.166 17.9355 54.166 17.3887V7.04688C54.166 6.57812 54.0781 6.1875 53.9023 5.875C53.7266 5.54297 53.5312 5.28906 53.3164 5.11328C53.1016 4.91797 52.877 4.78125 52.6426 4.70312C52.4082 4.60547 52.1738 4.55664 51.9395 4.55664C51.7051 4.55664 51.4707 4.60547 51.2363 4.70312C51.0215 4.78125 50.8066 4.91797 50.5918 5.11328C50.377 5.28906 50.1816 5.54297 50.0059 5.875C49.8301 6.1875 49.7324 6.57812 49.7129 7.04688V17.3887C49.6152 18.5605 48.9805 19.1953 47.8086 19.293C47.2617 19.293 46.7832 19.1172 46.373 18.7656C45.9824 18.3945 45.7871 17.9355 45.7871 17.3887V6.8125C45.8262 5.75781 46.0703 4.84961 46.5195 4.08789C46.9688 3.32617 47.4961 2.7207 48.1016 2.27148C48.707 1.80273 49.332 1.45117 49.9766 1.2168C50.6406 0.982422 51.3047 0.865234 51.9688 0.865234Z" fill="white"/>
</svg>
